<svg xmlns="http://www.w3.org/2000/svg" width="40" height="45.073" viewBox="0 0 40 45.073">
  <path id="node-js" d="M20,45.072a3.631,3.631,0,0,1-1.739-.455l-5.507-3.271c-.828-.455-.414-.621-.166-.7a10.031,10.031,0,0,0,2.484-1.118.381.381,0,0,1,.414.041l4.224,2.526a.526.526,0,0,0,.5,0l16.522-9.565a.476.476,0,0,0,.248-.455V12.981a.476.476,0,0,0-.248-.455L20.207,3a.526.526,0,0,0-.5,0L3.189,12.526a.52.52,0,0,0-.248.455V32.07a.52.52,0,0,0,.248.455L7.7,35.135c2.443,1.242,3.975-.207,3.975-1.656V14.638a.5.5,0,0,1,.5-.5h2.112a.5.5,0,0,1,.5.5V33.478c0,3.271-1.781,5.176-4.886,5.176a7.1,7.1,0,0,1-3.81-1.035L1.739,35.135A3.5,3.5,0,0,1,0,32.112V13.023A3.5,3.5,0,0,1,1.739,10L18.261.435a3.7,3.7,0,0,1,3.478,0L38.261,10A3.5,3.5,0,0,1,40,13.023V32.112a3.5,3.5,0,0,1-1.739,3.023L21.739,44.7A4.238,4.238,0,0,1,20,45.072Zm5.093-13.126c-7.246,0-8.737-3.313-8.737-6.128a.5.5,0,0,1,.5-.5h2.153a.426.426,0,0,1,.455.414c.331,2.195,1.284,3.271,5.673,3.271,3.478,0,4.969-.787,4.969-2.65,0-1.077-.414-1.863-5.839-2.4-4.513-.455-7.329-1.449-7.329-5.052,0-3.354,2.816-5.342,7.536-5.342,5.3,0,7.909,1.822,8.24,5.8a.668.668,0,0,1-.124.373.511.511,0,0,1-.331.166H30.1a.485.485,0,0,1-.455-.373c-.5-2.277-1.781-3.023-5.176-3.023-3.81,0-4.265,1.325-4.265,2.319,0,1.2.538,1.574,5.673,2.236,5.093.663,7.495,1.615,7.495,5.176-.041,3.644-3.023,5.714-8.282,5.714Z" transform="translate(0 0)" fill="#539e43"/>
</svg>
