<svg xmlns="http://www.w3.org/2000/svg" width="50" height="53.834" viewBox="0 0 50 53.834">
  <path id="Castel" d="M67.726,30.307H64.845a.476.476,0,0,0-.484.484v3.365H60.513V15.407a.476.476,0,0,0-.484-.484H57.148a.476.476,0,0,0-.484.484v3.365H52.816V15.407a.476.476,0,0,0-.484-.484H49.451a.476.476,0,0,0-.484.484v3.365H45.119V15.407c0-.631-.841-.484-1.23-.484v-4a11.689,11.689,0,0,1,2.7-.358c1.146,0,2.2.452,3.3.452.484,0,2.913-.116,2.913-.841V3.872a.476.476,0,0,0-.484-.484c-.536,0-1.588.452-2.524.452-1.02,0-2.2-.452-3.428-.452a11,11,0,0,0-2.492.3V3.178a1.7,1.7,0,0,0,.957-1.5,1.651,1.651,0,0,0-3.3,0,1.7,1.7,0,0,0,.957,1.5V14.923c-.389,0-1.23-.147-1.23.484v3.365H37.411V15.407a.476.476,0,0,0-.484-.484H34.046a.476.476,0,0,0-.484.484v3.365H29.746V15.407a.476.476,0,0,0-.484-.484H26.381a.476.476,0,0,0-.484.484V34.155H22.049V30.79a.476.476,0,0,0-.484-.484H18.684a.476.476,0,0,0-.484.484V53.871H37.432V43.777c0-7.634,11.535-7.634,11.535,0V53.871H68.2V30.79A.461.461,0,0,0,67.726,30.307Zm-30.294-.473a.476.476,0,0,1-.484.484H34.067a.476.476,0,0,1-.484-.484V23.1a.476.476,0,0,1,.484-.484h2.881a.476.476,0,0,1,.484.484Zm15.394,0a.476.476,0,0,1-.484.484H49.462a.476.476,0,0,1-.484-.484V23.1a.476.476,0,0,1,.484-.484h2.881a.476.476,0,0,1,.484.484Z" transform="translate(-18.2 -0.037)" fill="#fff"/>
</svg>
