<svg xmlns="http://www.w3.org/2000/svg" width="16" height="10.24" viewBox="0 0 16 10.24">
  <path id="youtube" d="M15.671,2.556a1.926,1.926,0,0,1-1.41,1.289A51.192,51.192,0,0,1,8,4.158a53.19,53.19,0,0,1-6.26-.3,1.963,1.963,0,0,1-1.41-1.3A17.686,17.686,0,0,1,0-.962,17.621,17.621,0,0,1,.33-4.48,1.926,1.926,0,0,1,1.74-5.769,51.285,51.285,0,0,1,8-6.082a53.19,53.19,0,0,1,6.26.3,1.926,1.926,0,0,1,1.41,1.289A17.692,17.692,0,0,1,16-.974a16.789,16.789,0,0,1-.33,3.53ZM6.406-3.155V1.231L10.571-.962Zm0,0" transform="translate(-0.001 6.082)" fill="#fff"/>
</svg>
